<?xml version="1.0" encoding="utf-8"?>
<!-- Generator: Adobe Illustrator 18.1.1, SVG Export Plug-In . SVG Version: 6.00 Build 0)  -->
<svg version="1.1" id="design" xmlns="http://www.w3.org/2000/svg" xmlns:xlink="http://www.w3.org/1999/xlink" x="0px" y="0px"
	 viewBox="0 0 200 200" enable-background="new 0 0 200 200" xml:space="preserve">
<g>
	<g>
		<path fill="#FF671B" d="M200,100c0,55.2-44.8,100-100,100C44.8,200,0,155.2,0,100C0,44.8,44.8,0,100,0C155.2,0,200,44.8,200,100"
			/>
	</g>
	<path fill="#FFFFFF" d="M53.1,96.6c8.5,0,13.6-4.6,15.1-12.8H65c-1.5,5.4-5.2,9.2-11,9.2c-8.1,0-11.7-6.9-11.7-14.1
		c0-8,3.6-15.4,12.5-15.4c6.5,0,10,4.9,10,9.8h2.3V61.1h-2.4c-0.2,0.8-0.3,1.3-1,1.3c-1.4,0-4.3-2.6-10.7-2.6
		c-10.9,0-17.5,8.6-17.5,19C35.5,89.2,42.7,96.6,53.1,96.6z M70.4,86.8c0,5.8,5,9.7,10.6,9.7c6.3,0,9.9-3,12.8-8.3H94
		c0,4.3,1.4,8.3,6.3,8.3c6.5,0,7.7-5,7.7-10.9v-2.2h-2.3v1.8c0,1.8,0,7.7-3.2,7.7c-1.2,0-2.4-1-2.4-3.8V69.5
		c0-9.2-10.6-9.6-13.7-9.6c-9.2,0-14,5.5-14.1,9.5c0,2.5,1.7,4.2,4.2,4.2c2.1,0,4.2-1.2,4.2-3.6c0-1.9-2.1-2.5-2.1-3.6
		c0-2.8,5-3.8,7-3.8c3.9,0,8.3,1.8,8.3,6.3C93.9,79.5,70.4,71.8,70.4,86.8z M93.8,74.4h0.1v4.8c0,6.5-3.7,13.2-10.9,13.2
		c-3.2,0-6.6-2.2-6.6-5.6C76.5,78.9,90.5,79.8,93.8,74.4z M121.6,57.2c0-5.1,0.6-10.7,5.4-10.7c1.1,0,3,0.2,3,1.7
		c0,1.3-1.5,1.4-1.5,3.7c0,2.1,1.7,3.3,3.7,3.3c2.4,0,3.9-1.8,3.9-4.3c0-4.6-4.8-6.8-8.8-6.8c-9.6,0-11.7,7-11.7,15.2v1.8h-7.2v3.2
		h7.2v23c0,5.7-4.2,5.7-6.4,5.7h-0.9v2.3h21.6V93H128c-2.1,0-6.3,0-6.3-5.7v-23h8.3v-3.2h-8.3V57.2z M147.6,96.6
		c9,0,14.8-5,16.4-12.8h-3.3c-1.7,5.5-6.6,9.2-12.1,9.2c-7.3,0-11.9-5-11.9-14.6h27.8c0-10.6-6.2-18.6-16.9-18.6
		c-10.6,0-17.7,8.1-17.7,18.3C129.9,88.5,137,96.6,147.6,96.6z M147.2,62.6c7.1,0,10.6,6.4,10.6,12.6h-21
		C136.7,68.8,140.5,62.6,147.2,62.6z M156.8,48.4c0.8-0.5,1.1-1.3,1.1-2.2c0-1.4-1.5-2.6-2.8-2.6c-1,0-2.1,0.8-2.7,1.4L142,55.7h3.2
		L156.8,48.4z M146.9,103.4c-8.5,0-13.6,4.6-15.1,12.8h3.2c1.5-5.4,5.2-9.2,11-9.2c8.1,0,11.7,6.9,11.7,14.1c0,8-3.6,15.4-12.5,15.4
		c-6.5,0-10-4.9-10-9.8h-2.4v12.1h2.4c0.2-0.8,0.3-1.3,1-1.3c1.4,0,4.3,2.6,10.7,2.6c10.9,0,17.4-8.5,17.4-19
		C164.5,110.8,157.3,103.4,146.9,103.4z M129.6,113.2c0-5.8-5-9.7-10.6-9.7c-6.3,0-9.9,3-12.8,8.3H106c0-4.3-1.4-8.3-6.3-8.3
		c-6.6,0-7.7,5-7.7,10.9v2.2h2.3v-1.8c0-1.8,0-7.7,3.2-7.7c1.2,0,2.4,1,2.4,3.8v19.7c0,9.2,10.6,9.6,13.7,9.6c9.2,0,14-5.5,14.1-9.5
		c0-2.5-1.7-4.2-4.2-4.2c-2.1,0-4.2,1.3-4.2,3.6c0,1.9,2.1,2.5,2.1,3.6c0,2.8-5,3.8-7,3.8c-3.9,0-8.3-1.8-8.3-6.3
		C106.1,120.5,129.6,128.2,129.6,113.2z M106.2,125.6h-0.1v-4.8c0-6.5,3.7-13.2,10.9-13.2c3.2,0,6.6,2.2,6.6,5.7
		C123.5,121.2,109.5,120.2,106.2,125.6z M70.1,107H72c2.1,0,6.4,0,6.4,5.7v23h-8.3v3.2h8.3v3.9c0,5.1-0.6,10.7-5.4,10.7
		c-1.1,0-3-0.2-3-1.7c0-1.3,1.5-1.4,1.5-3.7c0-2.1-1.7-3.3-3.7-3.3c-2.4,0-3.9,1.8-3.9,4.3c0,4.6,4.8,6.8,8.8,6.8
		c9.6,0,11.7-7,11.7-15.2v-1.8h7.3v-3.2h-7.3v-23c0-5.7,4.2-5.7,6.3-5.7h0.9v-2.4H70.1V107z M40.5,151.6c-0.8,0.5-1.1,1.3-1.1,2.2
		c0,1.4,1.5,2.6,2.8,2.6c1,0,2.1-0.8,2.7-1.5l10.4-10.7h-3.2L40.5,151.6z M52.4,140.1c10.6,0,17.7-8.1,17.7-18.3
		c0-10.3-7.1-18.3-17.7-18.3c-9,0-14.8,5-16.4,12.8h3.3c1.6-5.5,6.6-9.2,12.1-9.2c7.3,0,11.9,5,11.9,14.6H35.5
		C35.5,132.1,41.7,140.1,52.4,140.1z M63.3,124.7c0,6.5-3.8,12.6-10.5,12.6c-7.1,0-10.6-6.4-10.6-12.6H63.3z"/>
</g>
</svg>
